<mxfile host="drawio-plugin" modified="2022-04-06T12:36:54.438Z" agent="5.0 (Windows NT 6.2; Win64; x64) AppleWebKit/537.36 (KHTML, like Gecko) Chrome/89.0.4389.114 Safari/537.36" etag="5BCww6X-xrXgwNmvCZXs" version="15.5.4" type="embed"><diagram id="eD9qqQY0ev-XNHFiYNdI" name="Page-1"><mxGraphModel dx="589" dy="538" grid="0" gridSize="10" guides="1" tooltips="1" connect="1" arrows="1" fold="1" page="0" pageScale="1" pageWidth="827" pageHeight="1169" math="0" shadow="0"><root><mxCell id="0"/><mxCell id="1" parent="0"/><mxCell id="9O5VfU25N1OtuXoy-fDC-3" value="Server" style="swimlane;startSize=20;" parent="1" vertex="1"><mxGeometry y="60" width="260" height="310" as="geometry"><mxRectangle y="40" width="130" height="23" as="alternateBounds"/></mxGeometry></mxCell><mxCell id="9O5VfU25N1OtuXoy-fDC-6" value="StorageManager" style="whiteSpace=wrap;html=1;imageAspect=1;absoluteArcSize=0;dropTarget=0;collapsible=0;verticalAlign=top;" parent="9O5VfU25N1OtuXoy-fDC-3" vertex="1"><mxGeometry x="20" y="160" width="110" height="110" as="geometry"/></mxCell><mxCell id="9O5VfU25N1OtuXoy-fDC-5" value="Store&lt;br&gt;&amp;lt;T&amp;gt;" style="whiteSpace=wrap;html=1;aspect=fixed;" parent="9O5VfU25N1OtuXoy-fDC-3" vertex="1"><mxGeometry x="30" y="210" width="50" height="50" as="geometry"/></mxCell><mxCell id="9O5VfU25N1OtuXoy-fDC-8" value="ServerTaskManager&lt;br&gt;(piority)" style="whiteSpace=wrap;html=1;" parent="9O5VfU25N1OtuXoy-fDC-3" vertex="1"><mxGeometry x="70" y="45" width="120" height="62.5" as="geometry"/></mxCell><mxCell id="BjlJGxCMRHVYjm03ffOX-38" value="" style="endArrow=classic;html=1;rounded=0;exitX=0.269;exitY=0.034;exitDx=0;exitDy=0;exitPerimeter=0;entryX=0.167;entryY=0.24;entryDx=0;entryDy=0;entryPerimeter=0;" parent="9O5VfU25N1OtuXoy-fDC-3" source="9O5VfU25N1OtuXoy-fDC-3" target="9O5VfU25N1OtuXoy-fDC-8" edge="1"><mxGeometry width="50" height="50" relative="1" as="geometry"><mxPoint x="350" y="125" as="sourcePoint"/><mxPoint x="90" y="60" as="targetPoint"/></mxGeometry></mxCell><mxCell id="BjlJGxCMRHVYjm03ffOX-39" value="Request&lt;br&gt;(tasks)" style="text;html=1;align=center;verticalAlign=middle;resizable=0;points=[];autosize=1;strokeColor=none;fillColor=none;" parent="9O5VfU25N1OtuXoy-fDC-3" vertex="1"><mxGeometry x="10" y="30" width="60" height="30" as="geometry"/></mxCell><mxCell id="BjlJGxCMRHVYjm03ffOX-54" value="Request&lt;br&gt;(tasks)" style="text;html=1;align=center;verticalAlign=middle;resizable=0;points=[];autosize=1;strokeColor=none;fillColor=none;" parent="9O5VfU25N1OtuXoy-fDC-3" vertex="1"><mxGeometry x="10" y="130" width="60" height="30" as="geometry"/></mxCell><mxCell id="BjlJGxCMRHVYjm03ffOX-56" value="" style="endArrow=classic;html=1;rounded=0;exitX=0.167;exitY=0.72;exitDx=0;exitDy=0;exitPerimeter=0;entryX=0.455;entryY=0.068;entryDx=0;entryDy=0;entryPerimeter=0;" parent="9O5VfU25N1OtuXoy-fDC-3" source="9O5VfU25N1OtuXoy-fDC-8" target="9O5VfU25N1OtuXoy-fDC-6" edge="1"><mxGeometry width="50" height="50" relative="1" as="geometry"><mxPoint x="110" y="30" as="sourcePoint"/><mxPoint x="60" y="130" as="targetPoint"/></mxGeometry></mxCell><mxCell id="BjlJGxCMRHVYjm03ffOX-61" value="Other Services" style="swimlane;horizontal=0;labelBackgroundColor=default;" parent="9O5VfU25N1OtuXoy-fDC-3" vertex="1"><mxGeometry x="150" y="167.5" width="100" height="102.5" as="geometry"><mxRectangle x="150" y="130" width="30" height="140" as="alternateBounds"/></mxGeometry></mxCell><mxCell id="BjlJGxCMRHVYjm03ffOX-60" value="" style="shape=hexagon;perimeter=hexagonPerimeter2;whiteSpace=wrap;html=1;fixedSize=1;labelBackgroundColor=default;size=10;" parent="BjlJGxCMRHVYjm03ffOX-61" vertex="1"><mxGeometry x="35" y="10" width="40" height="30" as="geometry"/></mxCell><mxCell id="BjlJGxCMRHVYjm03ffOX-59" value="" style="shape=cylinder3;whiteSpace=wrap;html=1;boundedLbl=1;backgroundOutline=1;size=6.666661580403712;labelBackgroundColor=default;" parent="BjlJGxCMRHVYjm03ffOX-61" vertex="1"><mxGeometry x="40" y="50" width="30" height="50" as="geometry"/></mxCell><mxCell id="BjlJGxCMRHVYjm03ffOX-62" style="edgeStyle=orthogonalEdgeStyle;rounded=0;orthogonalLoop=1;jettySize=auto;html=1;exitX=0;exitY=0.25;exitDx=0;exitDy=0;entryX=0.104;entryY=0;entryDx=0;entryDy=0;entryPerimeter=0;startArrow=none;startFill=0;endArrow=none;endFill=0;" parent="BjlJGxCMRHVYjm03ffOX-61" source="BjlJGxCMRHVYjm03ffOX-60" target="BjlJGxCMRHVYjm03ffOX-60" edge="1"><mxGeometry relative="1" as="geometry"/></mxCell><mxCell id="BjlJGxCMRHVYjm03ffOX-66" value="" style="shape=flexArrow;endArrow=classic;startArrow=classic;html=1;rounded=0;entryX=1;entryY=1;entryDx=0;entryDy=0;width=5.833333333333334;endSize=3.0500000000000003;endWidth=5.972222222222222;startWidth=5.972222222222222;startSize=3.0500000000000003;exitX=0.2;exitY=0.195;exitDx=0;exitDy=0;exitPerimeter=0;" parent="9O5VfU25N1OtuXoy-fDC-3" source="BjlJGxCMRHVYjm03ffOX-61" target="9O5VfU25N1OtuXoy-fDC-8" edge="1"><mxGeometry width="100" height="100" relative="1" as="geometry"><mxPoint x="230" y="110" as="sourcePoint"/><mxPoint x="400" y="-10" as="targetPoint"/></mxGeometry></mxCell><mxCell id="BjlJGxCMRHVYjm03ffOX-67" value="" style="endArrow=classic;html=1;rounded=0;exitX=0.727;exitY=0.068;exitDx=0;exitDy=0;exitPerimeter=0;entryX=0.417;entryY=0.72;entryDx=0;entryDy=0;entryPerimeter=0;" parent="9O5VfU25N1OtuXoy-fDC-3" source="9O5VfU25N1OtuXoy-fDC-6" target="9O5VfU25N1OtuXoy-fDC-8" edge="1"><mxGeometry width="50" height="50" relative="1" as="geometry"><mxPoint x="350" y="180" as="sourcePoint"/><mxPoint x="400" y="130" as="targetPoint"/></mxGeometry></mxCell><mxCell id="BjlJGxCMRHVYjm03ffOX-71" value="Response" style="text;html=1;align=center;verticalAlign=middle;resizable=0;points=[];autosize=1;strokeColor=none;fillColor=none;horizontal=1;" parent="9O5VfU25N1OtuXoy-fDC-3" vertex="1"><mxGeometry x="100" y="130" width="70" height="20" as="geometry"/></mxCell><mxCell id="BjlJGxCMRHVYjm03ffOX-72" value="" style="endArrow=classic;html=1;rounded=0;exitX=0.833;exitY=0.24;exitDx=0;exitDy=0;exitPerimeter=0;entryX=0.731;entryY=0.032;entryDx=0;entryDy=0;entryPerimeter=0;" parent="9O5VfU25N1OtuXoy-fDC-3" source="9O5VfU25N1OtuXoy-fDC-8" target="9O5VfU25N1OtuXoy-fDC-3" edge="1"><mxGeometry width="50" height="50" relative="1" as="geometry"><mxPoint x="350" y="180" as="sourcePoint"/><mxPoint x="400" y="130" as="targetPoint"/></mxGeometry></mxCell><mxCell id="BjlJGxCMRHVYjm03ffOX-73" value="Response" style="text;html=1;align=center;verticalAlign=middle;resizable=0;points=[];autosize=1;strokeColor=none;fillColor=none;horizontal=1;" parent="9O5VfU25N1OtuXoy-fDC-3" vertex="1"><mxGeometry x="180" y="25" width="70" height="20" as="geometry"/></mxCell><mxCell id="BjlJGxCMRHVYjm03ffOX-76" value="" style="endArrow=openThin;dashed=1;html=1;dashPattern=1 3;strokeWidth=2;rounded=0;exitX=0.636;exitY=0.545;exitDx=0;exitDy=0;exitPerimeter=0;entryX=0.1;entryY=0.512;entryDx=0;entryDy=0;entryPerimeter=0;startArrow=openThin;startFill=0;endFill=0;jumpSize=6;shadow=0;sketch=0;" parent="9O5VfU25N1OtuXoy-fDC-3" source="9O5VfU25N1OtuXoy-fDC-6" target="BjlJGxCMRHVYjm03ffOX-61" edge="1"><mxGeometry width="50" height="50" relative="1" as="geometry"><mxPoint x="290" y="320" as="sourcePoint"/><mxPoint x="340" y="270" as="targetPoint"/></mxGeometry></mxCell><mxCell id="9O5VfU25N1OtuXoy-fDC-4" value="Client" style="swimlane;" parent="1" vertex="1"><mxGeometry x="550" y="75" width="210" height="280" as="geometry"><mxRectangle x="550" y="190" width="70" height="23" as="alternateBounds"/></mxGeometry></mxCell><mxCell id="9O5VfU25N1OtuXoy-fDC-13" value="CMDManager" style="whiteSpace=wrap;html=1;labelPosition=center;verticalLabelPosition=middle;align=center;verticalAlign=top;" parent="9O5VfU25N1OtuXoy-fDC-4" vertex="1"><mxGeometry x="20" y="75" width="170" height="155" as="geometry"/></mxCell><mxCell id="9O5VfU25N1OtuXoy-fDC-14" value="cmd-s" style="whiteSpace=wrap;html=1;" parent="9O5VfU25N1OtuXoy-fDC-4" vertex="1"><mxGeometry x="80" y="135" width="50" height="50" as="geometry"/></mxCell><mxCell id="BjlJGxCMRHVYjm03ffOX-3" value="" style="endArrow=classic;startArrow=none;html=1;rounded=0;exitX=0.6;exitY=0.2;exitDx=0;exitDy=0;exitPerimeter=0;entryX=0.529;entryY=0.194;entryDx=0;entryDy=0;entryPerimeter=0;startFill=0;" parent="9O5VfU25N1OtuXoy-fDC-4" source="9O5VfU25N1OtuXoy-fDC-14" target="9O5VfU25N1OtuXoy-fDC-13" edge="1"><mxGeometry width="50" height="50" relative="1" as="geometry"><mxPoint x="90" y="145" as="sourcePoint"/><mxPoint x="140" y="95" as="targetPoint"/></mxGeometry></mxCell><mxCell id="BjlJGxCMRHVYjm03ffOX-4" value="Request&lt;br&gt;(tasks)" style="text;html=1;align=center;verticalAlign=middle;resizable=0;points=[];autosize=1;strokeColor=none;fillColor=none;" parent="9O5VfU25N1OtuXoy-fDC-4" vertex="1"><mxGeometry x="110" y="95" width="60" height="30" as="geometry"/></mxCell><mxCell id="BjlJGxCMRHVYjm03ffOX-6" value="" style="endArrow=classic;html=1;rounded=0;entryX=0.4;entryY=0.2;entryDx=0;entryDy=0;entryPerimeter=0;" parent="9O5VfU25N1OtuXoy-fDC-4" target="9O5VfU25N1OtuXoy-fDC-14" edge="1"><mxGeometry width="50" height="50" relative="1" as="geometry"><mxPoint x="100" y="105" as="sourcePoint"/><mxPoint x="-70" y="105" as="targetPoint"/></mxGeometry></mxCell><mxCell id="BjlJGxCMRHVYjm03ffOX-7" value="Response" style="text;html=1;align=center;verticalAlign=middle;resizable=0;points=[];autosize=1;strokeColor=none;fillColor=none;horizontal=1;" parent="9O5VfU25N1OtuXoy-fDC-4" vertex="1"><mxGeometry x="30" y="105" width="70" height="20" as="geometry"/></mxCell><mxCell id="BjlJGxCMRHVYjm03ffOX-12" value="Request&lt;br&gt;(tasks)" style="text;html=1;align=center;verticalAlign=middle;resizable=0;points=[];autosize=1;strokeColor=none;fillColor=none;" parent="9O5VfU25N1OtuXoy-fDC-4" vertex="1"><mxGeometry x="142" y="35" width="60" height="30" as="geometry"/></mxCell><mxCell id="BjlJGxCMRHVYjm03ffOX-13" value="" style="endArrow=classic;html=1;rounded=0;entryX=0.619;entryY=0.054;entryDx=0;entryDy=0;entryPerimeter=0;exitX=0.588;exitY=0.065;exitDx=0;exitDy=0;exitPerimeter=0;" parent="9O5VfU25N1OtuXoy-fDC-4" edge="1"><mxGeometry width="50" height="50" relative="1" as="geometry"><mxPoint x="140.96000000000004" y="85.07499999999982" as="sourcePoint"/><mxPoint x="150.99" y="15.11999999999989" as="targetPoint"/></mxGeometry></mxCell><mxCell id="BjlJGxCMRHVYjm03ffOX-16" value="Response" style="text;html=1;align=center;verticalAlign=middle;resizable=0;points=[];autosize=1;strokeColor=none;fillColor=none;horizontal=1;" parent="9O5VfU25N1OtuXoy-fDC-4" vertex="1"><mxGeometry x="7" y="40" width="70" height="20" as="geometry"/></mxCell><mxCell id="BjlJGxCMRHVYjm03ffOX-19" value="" style="endArrow=classic;html=1;rounded=0;entryX=0.412;entryY=0.065;entryDx=0;entryDy=0;entryPerimeter=0;exitX=0.381;exitY=0.054;exitDx=0;exitDy=0;exitPerimeter=0;" parent="9O5VfU25N1OtuXoy-fDC-4" edge="1"><mxGeometry width="50" height="50" relative="1" as="geometry"><mxPoint x="67.00999999999999" y="15.11999999999989" as="sourcePoint"/><mxPoint x="77.03999999999996" y="85.07499999999982" as="targetPoint"/></mxGeometry></mxCell><mxCell id="BjlJGxCMRHVYjm03ffOX-48" value="" style="endArrow=classic;html=1;rounded=0;exitX=0.5;exitY=0;exitDx=0;exitDy=0;" parent="9O5VfU25N1OtuXoy-fDC-4" edge="1"><mxGeometry width="50" height="50" relative="1" as="geometry"><mxPoint x="105" y="74.99999999999989" as="sourcePoint"/><mxPoint x="105" y="79.99999999999989" as="targetPoint"/><Array as="points"><mxPoint x="120" y="55"/><mxPoint x="90" y="55"/></Array></mxGeometry></mxCell><mxCell id="BjlJGxCMRHVYjm03ffOX-49" value="Self-made&lt;br&gt;&amp;nbsp;task" style="text;html=1;align=center;verticalAlign=middle;resizable=0;points=[];autosize=1;strokeColor=none;fillColor=none;" parent="9O5VfU25N1OtuXoy-fDC-4" vertex="1"><mxGeometry x="70" y="35" width="70" height="30" as="geometry"/></mxCell><mxCell id="9O5VfU25N1OtuXoy-fDC-12" value="" style="shape=flexArrow;endArrow=classic;startArrow=classic;html=1;rounded=0;entryX=0;entryY=0.5;entryDx=0;entryDy=0;exitX=1;exitY=0.5;exitDx=0;exitDy=0;width=36.66666666666667;startSize=6.016666666666667;" parent="1" source="9O5VfU25N1OtuXoy-fDC-3" target="9O5VfU25N1OtuXoy-fDC-4" edge="1"><mxGeometry width="100" height="100" relative="1" as="geometry"><mxPoint x="472.0000000000002" y="215" as="sourcePoint"/><mxPoint x="460" y="240" as="targetPoint"/></mxGeometry></mxCell><mxCell id="BjlJGxCMRHVYjm03ffOX-47" value="L6Protocol" style="edgeLabel;html=1;align=center;verticalAlign=middle;resizable=0;points=[];fontStyle=1;rotation=0;" parent="9O5VfU25N1OtuXoy-fDC-12" vertex="1" connectable="0"><mxGeometry x="-0.2335" y="7" relative="1" as="geometry"><mxPoint x="20" y="3" as="offset"/></mxGeometry></mxCell><mxCell id="BjlJGxCMRHVYjm03ffOX-1" value="user" style="shape=umlActor;verticalLabelPosition=bottom;verticalAlign=top;html=1;labelBackgroundColor=default;" parent="1" vertex="1"><mxGeometry x="820" y="130" width="60" height="110" as="geometry"/></mxCell><mxCell id="BjlJGxCMRHVYjm03ffOX-2" value="" style="endArrow=classic;startArrow=classic;html=1;rounded=0;exitX=1;exitY=0.5;exitDx=0;exitDy=0;" parent="1" source="9O5VfU25N1OtuXoy-fDC-14" target="BjlJGxCMRHVYjm03ffOX-1" edge="1"><mxGeometry width="50" height="50" relative="1" as="geometry"><mxPoint x="620" y="230" as="sourcePoint"/><mxPoint x="670" y="180" as="targetPoint"/></mxGeometry></mxCell><mxCell id="BjlJGxCMRHVYjm03ffOX-5" value="io" style="text;html=1;align=center;verticalAlign=middle;resizable=0;points=[];autosize=1;strokeColor=none;fillColor=none;" parent="1" vertex="1"><mxGeometry x="770" y="190" width="30" height="20" as="geometry"/></mxCell><mxCell id="BjlJGxCMRHVYjm03ffOX-9" value="WEB&lt;br&gt;(Request(tasks))" style="text;html=1;align=center;verticalAlign=middle;resizable=0;points=[];autosize=1;strokeColor=none;fillColor=none;" parent="1" vertex="1"><mxGeometry x="300" y="160" width="100" height="30" as="geometry"/></mxCell><mxCell id="BjlJGxCMRHVYjm03ffOX-22" value="" style="endArrow=classic;html=1;rounded=0;exitX=0.5;exitY=0;exitDx=0;exitDy=0;" parent="1" source="9O5VfU25N1OtuXoy-fDC-4" edge="1"><mxGeometry width="50" height="50" relative="1" as="geometry"><mxPoint x="680" y="60" as="sourcePoint"/><mxPoint x="655" y="80" as="targetPoint"/><Array as="points"><mxPoint x="690" y="40"/><mxPoint x="620" y="40"/></Array></mxGeometry></mxCell><mxCell id="BjlJGxCMRHVYjm03ffOX-37" value="" style="endArrow=classic;html=1;rounded=0;exitX=0.5;exitY=0;exitDx=0;exitDy=0;entryX=0.5;entryY=0.016;entryDx=0;entryDy=0;entryPerimeter=0;startArrow=none;" parent="1" source="BjlJGxCMRHVYjm03ffOX-42" target="9O5VfU25N1OtuXoy-fDC-3" edge="1"><mxGeometry x="70" y="-20" width="50" height="50" relative="1" as="geometry"><mxPoint x="130" y="20" as="sourcePoint"/><mxPoint x="120" y="30" as="targetPoint"/><Array as="points"><mxPoint x="90" y="30"/></Array></mxGeometry></mxCell><mxCell id="BjlJGxCMRHVYjm03ffOX-40" value="Self-made task" style="text;html=1;align=center;verticalAlign=middle;resizable=0;points=[];autosize=1;strokeColor=none;fillColor=none;" parent="1" vertex="1"><mxGeometry x="605" y="20" width="100" height="20" as="geometry"/></mxCell><mxCell id="BjlJGxCMRHVYjm03ffOX-50" value="Connection&lt;br&gt;request" style="text;html=1;align=center;verticalAlign=middle;resizable=0;points=[];autosize=1;strokeColor=none;fillColor=none;" parent="1" vertex="1"><mxGeometry x="420" y="160" width="80" height="30" as="geometry"/></mxCell><mxCell id="BjlJGxCMRHVYjm03ffOX-42" value="Self-made task" style="text;html=1;align=center;verticalAlign=middle;resizable=0;points=[];autosize=1;strokeColor=none;fillColor=none;" parent="1" vertex="1"><mxGeometry x="80" y="30" width="100" height="20" as="geometry"/></mxCell><mxCell id="BjlJGxCMRHVYjm03ffOX-58" value="" style="endArrow=none;html=1;rounded=0;exitX=0.5;exitY=0;exitDx=0;exitDy=0;entryX=0.5;entryY=0.016;entryDx=0;entryDy=0;entryPerimeter=0;" parent="1" source="9O5VfU25N1OtuXoy-fDC-3" target="BjlJGxCMRHVYjm03ffOX-42" edge="1"><mxGeometry x="70" y="-20" width="50" height="50" relative="1" as="geometry"><mxPoint x="130" y="75" as="sourcePoint"/><mxPoint x="130" y="79.96000000000004" as="targetPoint"/><Array as="points"><mxPoint x="160" y="30"/></Array></mxGeometry></mxCell><mxCell id="BjlJGxCMRHVYjm03ffOX-74" value="WEB&lt;br&gt;(Response)" style="text;html=1;align=center;verticalAlign=middle;resizable=0;points=[];autosize=1;strokeColor=none;fillColor=none;horizontal=1;" parent="1" vertex="1"><mxGeometry x="310" y="240" width="80" height="30" as="geometry"/></mxCell><mxCell id="BjlJGxCMRHVYjm03ffOX-75" value="Connection&lt;br&gt;response" style="text;html=1;align=center;verticalAlign=middle;resizable=0;points=[];autosize=1;strokeColor=none;fillColor=none;" parent="1" vertex="1"><mxGeometry x="420" y="240" width="80" height="30" as="geometry"/></mxCell></root></mxGraphModel></diagram></mxfile>